<svg height="512" width="512" xmlns="http://www.w3.org/2000/svg"><g fill="#c7c3d3" id="google__x2C__plus__x2C__icons__x2C__social__x2C_media"><path d="M425.614 86.349C382.172 42.901 322.258 16.07 255.96 16.07c-66.297 0-126.212 26.831-169.654 70.278C42.868 129.793 16.029 189.707 16.029 256c0 66.29 26.839 126.209 70.277 169.652 43.442 43.447 103.357 70.276 169.654 70.276 66.298 0 126.212-26.829 169.654-70.276C469.052 382.209 495.896 322.29 495.896 256c0-66.292-26.843-126.206-70.282-169.651zm-13.282 326.15c-39.993 39.993-95.261 64.702-156.372 64.702s-116.379-24.709-156.372-64.702c-40.112-40.117-64.826-95.385-64.826-156.498 0-61.111 24.714-116.379 64.826-156.367 39.993-39.988 95.261-64.835 156.372-64.835s116.379 24.847 156.372 64.835c40.117 39.988 64.821 95.256 64.821 156.367 0 61.113-24.704 116.381-64.821 156.498z"/><path d="M280.404 239.263c-17.668.265-35.337.265-53.005.265-5.044 0-10.226-.265-15.151 0-1.055 0-2.65.458-2.65 1.123-.132 10.232-.132 21.35-.132 30.35h43.173c-.393 0-.79 4.453-1.458 5.92-6.516 19.664-26.843 29.731-48.761 26.146-27.104-4.52-43.835-29.312-38.924-56.413.535-3.854 1.86-7.481 3.189-10.938 9.028-19.661 31.215-31.575 53.143-26.659 7.836 1.728 14.616 5.341 20.318 10.52 7.973-7.971 15.549-15.532 23.782-23.768-.53-.399-1.458-1.058-1.987-1.72-19.131-16.077-41.059-22.055-65.635-17.936-35.475 5.714-60.974 33.616-66.42 66.161-2.522 13.819-1.462 28.568 3.989 42.916 13.552 34.414 48.217 55.532 85.418 51.415 18.199-1.991 34.415-8.503 46.902-21.922 18.719-19.926 23.635-43.841 20.588-70.277-.535-4.386-2.257-5.183-6.379-5.183zM353 237v.003c0-6.776 1.365-13.552 1.232-20.461 0-1.06-1.086-3.054-1.616-3.054-6.104-.268-9.616-.268-18.616-.268v23.779h-29v9.703c0 5.049.996 10.228 1.389 15.276 4.916.266 9.688.53 14.865.53 4.126.132 7.746 0 12.746 0v27.898c9-.132 14 0 19 0v-28.408h29v-25h-21.221C359.189 237 358 237 353 237z"/></g></svg>